<svg xmlns="http://www.w3.org/2000/svg" version="1.1" xmlns:xlink="http://www.w3.org/1999/xlink" xmlns:svgjs="http://svgjs.dev/svgjs" width="2000" height="1999" viewBox="0 0 2000 1999"><g transform="matrix(1,0,0,1,-0.4314868804665366,-0.4312711370263287)"><svg viewBox="0 0 343 343" data-background-color="#332d2d" preserveAspectRatio="xMidYMid meet" height="1999" width="2000" xmlns="http://www.w3.org/2000/svg" xmlns:xlink="http://www.w3.org/1999/xlink"><g id="tight-bounds" transform="matrix(1,0,0,1,0.07400000000001228,0.07400000000001228)"><svg viewBox="0 0 342.8515585177538 342.8515585177538" height="342.8515585177538" width="342.8515585177538"><g><svg></svg></g><g><svg viewBox="0 0 342.8515585177538 342.8515585177538" height="342.8515585177538" width="342.8515585177538"><g><path d="M0 171.426c0-94.676 76.75-171.426 171.426-171.426 94.676 0 171.426 76.75 171.426 171.426 0 94.676-76.75 171.426-171.426 171.426-94.676 0-171.426-76.75-171.426-171.426zM171.426 338.516c92.281 0 167.09-74.809 167.09-167.09 0-92.281-74.809-167.09-167.09-167.09-92.281 0-167.09 74.809-167.09 167.09 0 92.281 74.809 167.09 167.09 167.09z" data-fill-palette-color="tertiary" fill="#dbcf61" stroke="transparent"></path><ellipse rx="164.56874808852183" ry="164.56874808852183" cx="171.4257792588769" cy="171.4257792588769" fill="#dbcf61" stroke="transparent" stroke-width="0" fill-opacity="1" data-fill-palette-color="tertiary"></ellipse></g><g transform="matrix(1,0,0,1,64.84655864529836,100.18299987301961)"><svg viewBox="0 0 213.15844122715708 142.48555877171458" height="142.48555877171458" width="213.15844122715708"><g><svg viewBox="0 0 213.15844122715708 142.48555877171458" height="142.48555877171458" width="213.15844122715708"><g transform="matrix(1,0,0,1,0,94.40663021657898)"><svg viewBox="0 0 213.15844122715708 48.07892855513561" height="48.07892855513561" width="213.15844122715708"><g id="textblocktransform"><svg viewBox="0 0 213.15844122715708 48.07892855513561" height="48.07892855513561" width="213.15844122715708" id="textblock"><g><svg viewBox="0 0 213.15844122715708 48.07892855513561" height="48.07892855513561" width="213.15844122715708"><g transform="matrix(1,0,0,1,0,0)"><svg width="213.15844122715708" viewBox="0 -37 166.68 37.6" height="48.07892855513561" data-palette-color="#332d2d"><path d="M7.7 0.6L7.7 0.6Q5.4 0.6 3.38-0.2 1.35-1 0-2.3L0-2.3 2.3-5.95Q3.3-4.9 4.7-4.2 6.1-3.5 7.55-3.5L7.55-3.5Q9.95-3.5 11.35-5.23 12.75-6.95 12.75-11.05L12.75-11.05 12.75-35 17.5-35 17.5-11.55Q17.5-5.2 14.8-2.3 12.1 0.6 7.7 0.6ZM36.45 0.6L36.45 0.6Q32.75 0.6 29.8-1.13 26.85-2.85 25.17-5.93 23.5-9 23.5-13L23.5-13Q23.5-17.2 25.2-20.25 26.9-23.3 29.85-24.95 32.8-26.6 36.45-26.6L36.45-26.6Q40.1-26.6 43.02-24.95 45.95-23.3 47.67-20.28 49.4-17.25 49.4-13.1L49.4-13.1Q49.4-8.95 47.7-5.88 46-2.8 43.07-1.1 40.15 0.6 36.45 0.6ZM36.45-3.4L36.45-3.4Q40.4-3.4 42.6-6.08 44.8-8.75 44.8-13L44.8-13Q44.8-15.6 43.7-17.78 42.6-19.95 40.72-21.28 38.85-22.6 36.45-22.6L36.45-22.6Q32.5-22.6 30.3-20 28.1-17.4 28.1-13.1L28.1-13.1Q28.1-10.5 29.2-8.28 30.3-6.05 32.17-4.73 34.05-3.4 36.45-3.4ZM63.3 0.6L63.3 0.6Q61 0.6 59.15-0.28 57.3-1.15 56.22-3.1 55.15-5.05 55.15-8.15L55.15-8.15 55.15-37 59.65-37 59.65-8.6Q59.65-5.9 60.77-4.6 61.9-3.3 63.9-3.3L63.9-3.3Q64.84-3.3 65.77-3.53 66.7-3.75 67.34-4.05L67.34-4.05 68.45-0.4Q67.55 0 66.22 0.3 64.9 0.6 63.3 0.6ZM77.19 0L72.69 0 72.69-26 77.19-26 77.19 0ZM74.94-30.45L74.94-30.45Q73.64-30.45 72.72-31.4 71.79-32.35 71.79-33.6L71.79-33.6Q71.79-35.05 72.64-35.9 73.49-36.75 74.94-36.75L74.94-36.75Q76.24-36.75 77.17-35.83 78.09-34.9 78.09-33.6L78.09-33.6Q78.09-32.2 77.24-31.33 76.39-30.45 74.94-30.45ZM112.89 0.6L112.89 0.6Q106.84 0.6 103.39-3 99.94-6.6 99.94-13.3L99.94-13.3 99.94-35 104.69-35 104.69-14.05Q104.69-9.05 106.74-6.3 108.79-3.55 112.89-3.55L112.89-3.55Q117.14-3.55 119.24-6.23 121.34-8.9 121.34-14.05L121.34-14.05 121.34-35 125.94-35 125.94-13.5Q125.94-9.1 124.31-5.93 122.69-2.75 119.76-1.07 116.84 0.6 112.89 0.6ZM138.19 0L133.69 0 133.69-26 138.03-26 138.03-20.35Q138.69-22 139.78-23.43 140.88-24.85 142.53-25.73 144.19-26.6 146.38-26.6L146.38-26.6Q147.13-26.6 147.88-26.53 148.63-26.45 149.13-26.3L149.13-26.3 147.78-21.65Q146.84-22.05 145.53-22.05L145.53-22.05Q143.69-22.05 142.01-21 140.34-19.95 139.26-17.75 138.19-15.55 138.19-12.15L138.19-12.15 138.19 0ZM161.53 0.6L161.53 0.6Q159.23 0.6 157.38-0.28 155.53-1.15 154.46-3.1 153.38-5.05 153.38-8.15L153.38-8.15 153.38-37 157.88-37 157.88-8.6Q157.88-5.9 159.01-4.6 160.13-3.3 162.13-3.3L162.13-3.3Q163.08-3.3 164.01-3.53 164.93-3.75 165.58-4.05L165.58-4.05 166.68-0.4Q165.78 0 164.46 0.3 163.13 0.6 161.53 0.6Z" opacity="1" transform="matrix(1,0,0,1,0,0)" fill="#332d2d" class="wordmark-text-0" data-fill-palette-color="quaternary" id="text-0"></path></svg></g></svg></g></svg></g></svg></g><g transform="matrix(1,0,0,1,81.9619011305436,0)"><svg viewBox="0 0 49.23463896606988 83.05634907899677" height="83.05634907899677" width="49.23463896606988"><g><svg xmlns="http://www.w3.org/2000/svg" xmlns:cc="http://creativecommons.org/ns#" xmlns:dc="http://purl.org/dc/elements/1.1/" xmlns:rdf="http://www.w3.org/1999/02/22-rdf-syntax-ns#" version="1.1" viewBox="20.197883541561836 1.2496602469675946 57.52711645843816 97.04533975303242" x="0" y="0" height="83.05634907899677" width="49.23463896606988" class="icon-icon-0" data-fill-palette-color="quaternary" id="icon-0"><path d="M44.451 1.25A20.06 20.06 0 0 0 24.5 21.387 20.06 20.06 0 0 0 37.432 40.041L37.391 25.852C37.376 22.134 40.561 19.142 44.501 19.142 48.44 19.141 51.61 22.133 51.61 25.851V40.086A20.06 20.06 0 0 0 64.627 21.313V21.165A20.06 20.06 0 0 0 44.452 1.25zM44.506 21.402C41.867 21.402 39.736 23.406 39.744 25.896L39.842 59.84S39.808 61.551 39.32 61.562C39.23 61.564 39.115 61.49 39.006 61.4L39.002 61.396 27.227 50.166C25.615 48.63 23.139 48.63 21.684 50.162L21.12 50.755C19.666 52.287 20.06 54.515 21.408 56.288L38.303 78.487S38.663 78.984 38.783 79.262C38.99 79.734 39.195 80.751 39.195 80.751L39.546 85.604H35.44C34.54 85.604 33.815 86.774 33.815 88.23V95.67C33.815 97.125 34.54 98.295 35.44 98.295H76.1C77 98.295 77.725 97.125 77.725 95.67V88.23C77.725 86.774 77 85.603 76.1 85.603H72.14C72.06 84.098 72.026 82.257 72.23 81.047 72.595 78.887 73.214 79.487 74.463 74.864 75.713 70.24 75.133 52.098 75.133 52.098 75.353 49.604 73.191 47.576 70.78 47.576 68.599 47.576 66.924 49.233 66.524 51.401L66.516 50.279S66.591 44.801 62.137 44.713C59.843 44.668 58.122 46.628 57.881 49.051L57.851 46.591C57.817 44.044 55.935 41.993 53.558 41.993 51.201 41.994 49.307 44.013 49.274 46.53L49.256 46.272 49.268 25.895C49.269 23.405 47.144 21.4 44.506 21.4z" fill-rule="evenodd" paint-order="fill markers stroke" fill="#332d2d" data-fill-palette-color="quaternary"></path></svg></g></svg></g><g></g></svg></g></svg></g></svg></g><defs></defs></svg><rect width="342.8515585177538" height="342.8515585177538" fill="none" stroke="none" visibility="hidden"></rect></g></svg></g></svg>